<?xml version="1.0" standalone="no"?>
<!DOCTYPE svg PUBLIC "-//W3C//DTD SVG 20010904//EN"
 "http://www.w3.org/TR/2001/REC-SVG-20010904/DTD/svg10.dtd">
<svg version="1.0" xmlns="http://www.w3.org/2000/svg"
 width="960.000000pt" height="960.000000pt" viewBox="0 0 960.000000 960.000000"
 preserveAspectRatio="xMidYMid meet">
<metadata>
Created by potrace 1.11, written by Peter Selinger 2001-2013
</metadata>
<g transform="translate(0.000000,960.000000) scale(0.100000,-0.100000)"
fill="#000000" stroke="none">
<path d="M3345 9594 c-1309 -26 -1943 -145 -2406 -454 -395 -262 -640 -638
-774 -1183 -78 -321 -118 -664 -147 -1272 -18 -378 -18 -3399 0 -3770 38 -779
103 -1210 238 -1571 201 -542 583 -916 1127 -1103 369 -127 780 -187 1532
-223 378 -18 3399 -18 3770 0 779 38 1210 103 1571 238 542 201 916 583 1103
1127 127 369 187 780 223 1532 18 378 18 3399 0 3770 -38 779 -103 1210 -238
1571 -201 542 -583 916 -1127 1103 -363 125 -767 185 -1502 222 -190 10 -2980
20 -3370 13z m-636 -3010 c65 -19 119 -67 154 -136 15 -29 55 -132 90 -228
167 -457 423 -975 644 -1300 136 -201 295 -378 387 -431 91 -52 169 -33 198
49 10 29 13 173 13 687 0 644 0 651 -23 730 -33 117 -69 187 -160 307 -63 84
-82 118 -87 153 -9 57 20 120 72 155 l37 25 600 3 c644 3 663 2 710 -47 52
-55 51 -29 56 -886 l5 -800 23 -42 c28 -53 53 -66 113 -61 236 23 760 751
1119 1556 74 164 108 210 188 249 l57 28 450 0 450 0 44 -25 c51 -29 81 -78
81 -131 0 -194 -322 -781 -840 -1534 -159 -232 -183 -275 -183 -331 0 -78 35
-126 273 -369 400 -408 710 -788 817 -1000 39 -76 63 -157 63 -210 0 -53 -36
-124 -78 -152 -60 -40 -116 -44 -558 -41 l-419 3 -65 32 c-87 43 -147 98 -364
336 -376 413 -651 651 -848 735 -81 34 -216 39 -262 9 -59 -39 -61 -51 -66
-517 -5 -394 -6 -428 -24 -464 -43 -85 -160 -125 -397 -133 -353 -14 -699 67
-1054 246 -448 226 -817 553 -1152 1021 -520 728 -920 1512 -1073 2104 -41
159 -48 251 -26 311 20 52 65 90 122 104 21 5 224 9 450 10 344 1 419 -2 463
-15z"/>
</g>
</svg>
