<?xml version="1.0" standalone="no"?>
<!DOCTYPE svg PUBLIC "-//W3C//DTD SVG 20010904//EN"
 "http://www.w3.org/TR/2001/REC-SVG-20010904/DTD/svg10.dtd">
<svg version="1.0" xmlns="http://www.w3.org/2000/svg"
 width="512.000000pt" height="512.000000pt" viewBox="0 0 512.000000 512.000000"
 preserveAspectRatio="xMidYMid meet">
<metadata>
Created by potrace 1.11, written by Peter Selinger 2001-2013
</metadata>
<g transform="translate(0.000000,512.000000) scale(0.100000,-0.100000)"
fill="#000000" stroke="none">
<path d="M3579 4695 c-3 -2 -52 -5 -109 -6 -105 -2 -237 -26 -345 -64 -149
-52 -323 -164 -440 -285 -92 -94 -84 -85 -137 -165 -109 -166 -175 -346 -194
-527 -4 -35 -7 -535 -7 -1113 1 -950 2 -1059 18 -1140 71 -373 299 -677 630
-843 110 -54 225 -93 320 -107 22 -4 51 -8 65 -11 36 -7 216 -6 280 1 167 18
375 96 520 195 56 38 66 47 136 110 205 187 343 461 371 735 7 74 7 2114 0
2171 -35 266 -140 493 -315 678 -186 199 -455 334 -720 362 -31 3 -60 8 -63
10 -3 2 -8 2 -10 -1z m26 -866 c22 -6 45 -16 50 -22 6 -7 16 -13 24 -15 49
-11 124 -102 147 -180 12 -38 14 -226 12 -1071 l-3 -1026 -24 -49 c-41 -82
-122 -151 -204 -173 -12 -4 -56 -6 -97 -6 -59 0 -86 5 -125 24 -63 30 -124 90
-156 154 l-24 50 0 1045 0 1045 25 50 c69 140 228 214 375 174z"/>
<path d="M1385 4681 c-16 -4 -50 -18 -75 -31 -77 -39 -713 -467 -754 -507 -91
-89 -127 -182 -122 -321 3 -103 13 -136 70 -221 41 -62 92 -107 158 -140 31
-16 55 -30 53 -32 -2 -2 9 -5 23 -5 15 -1 52 -4 82 -7 62 -7 142 6 205 33 l41
18 0 -1307 c-1 -718 2 -1333 6 -1366 9 -69 62 -184 108 -232 197 -207 549
-166 684 81 59 107 56 5 56 1906 0 1109 -3 1765 -10 1798 -15 83 -57 159 -122
223 -33 33 -66 59 -74 59 -8 0 -14 4 -14 9 0 4 -29 18 -65 30 -67 22 -186 27
-250 12z"/>
</g>
</svg>
