<?xml version="1.0" standalone="no"?>
<!DOCTYPE svg PUBLIC "-//W3C//DTD SVG 20010904//EN"
 "http://www.w3.org/TR/2001/REC-SVG-20010904/DTD/svg10.dtd">
<svg version="1.0" xmlns="http://www.w3.org/2000/svg"
 width="512.000000pt" height="512.000000pt" viewBox="0 0 512.000000 512.000000"
 preserveAspectRatio="xMidYMid meet">
<metadata>
Created by potrace 1.11, written by Peter Selinger 2001-2013
</metadata>
<g transform="translate(0.000000,512.000000) scale(0.100000,-0.100000)"
fill="#000000" stroke="none">
<path d="M2323 5110 c-590 -58 -1151 -322 -1571 -740 -175 -173 -333 -386
-452 -607 l-55 -103 -53 0 c-29 0 -65 -6 -81 -14 -72 -38 -64 -149 14 -177 21
-8 34 -18 31 -25 -29 -74 -82 -263 -101 -359 -118 -584 -40 -1167 224 -1686
71 -139 182 -313 205 -322 41 -16 87 -7 117 22 46 46 40 78 -37 201 -174 280
-290 594 -340 925 -25 167 -25 503 0 670 22 147 73 350 118 470 l34 90 142 3
c162 3 142 17 161 -114 25 -167 95 -347 191 -489 273 -404 751 -512 1131 -254
123 83 248 229 322 375 24 48 30 53 79 65 68 18 248 18 316 0 49 -12 55 -17
79 -65 125 -246 335 -427 574 -492 89 -25 290 -25 379 -1 148 39 321 150 423
270 65 77 149 212 186 301 37 90 77 235 86 314 12 101 -2 93 158 90 l141 -3
34 -90 c45 -120 96 -323 118 -470 22 -146 25 -494 6 -630 -41 -284 -115 -523
-240 -770 -354 -699 -1010 -1163 -1807 -1277 -136 -19 -483 -16 -630 6 -330
50 -645 165 -925 340 -123 77 -155 83 -201 37 -29 -30 -38 -76 -22 -117 9 -23
183 -134 322 -205 824 -419 1817 -361 2580 152 157 105 261 190 390 320 613
613 870 1473 696 2334 -19 96 -72 285 -101 359 -3 7 10 17 31 25 78 28 86 139
14 177 -16 8 -53 14 -84 14 -51 0 -56 2 -65 26 -15 38 -125 228 -182 312 -181
268 -439 521 -718 705 -135 88 -384 212 -536 266 -140 50 -356 104 -504 126
-126 19 -468 27 -597 15z m442 -200 c369 -34 702 -143 1015 -332 337 -202 639
-511 828 -845 l41 -73 -2089 0 -2089 0 41 73 c280 495 756 883 1311 1067 294
98 638 138 942 110z m-515 -1464 c0 -34 -33 -180 -55 -246 -90 -264 -293 -471
-510 -520 -70 -16 -199 -14 -268 5 -257 68 -468 333 -532 668 -8 43 -15 85
-15 93 0 12 108 14 690 14 582 0 690 -2 690 -14z m410 12 c4 -20 29 -186 30
-193 0 -6 -50 -10 -130 -10 -80 0 -130 4 -130 10 1 7 26 173 30 193 0 1 45 2
100 2 55 0 100 -1 100 -2z m1590 -12 c0 -8 -7 -50 -15 -93 -64 -335 -275 -600
-532 -668 -70 -19 -200 -21 -268 -5 -221 53 -421 257 -511 522 -22 64 -54 210
-54 244 0 12 108 14 690 14 582 0 690 -2 690 -14z"/>
<path d="M1309 2245 c-42 -23 -53 -63 -46 -169 21 -321 154 -610 384 -838 237
-233 524 -359 854 -375 360 -18 699 111 960 364 238 231 372 517 395 845 8
111 -3 151 -47 173 -42 22 -2460 22 -2500 0z m2341 -216 c0 -16 -7 -61 -16
-100 l-16 -69 -1058 0 -1058 0 -16 69 c-9 39 -16 84 -16 100 l0 31 1090 0
1090 0 0 -31z m-120 -374 c0 -10 -66 -113 -106 -165 -52 -68 -153 -166 -218
-213 l-49 -35 -61 45 c-81 60 -198 118 -293 145 -67 20 -101 23 -243 23 -142
0 -176 -3 -244 -23 -92 -27 -228 -95 -302 -151 l-51 -38 -49 35 c-65 46 -166
144 -218 212 -40 52 -106 155 -106 165 0 3 437 5 970 5 534 0 970 -2 970 -5z
m-880 -405 c90 -13 184 -44 250 -81 l55 -32 -54 -18 c-207 -71 -475 -71 -682
0 l-54 18 55 32 c85 49 223 86 330 90 19 0 64 -4 100 -9z"/>
<path d="M771 906 c-87 -48 -50 -186 49 -186 51 0 100 49 100 99 0 75 -83 124
-149 87z"/>
</g>
</svg>
